<svg version="1.1" id="Layer_1" xmlns="http://www.w3.org/2000/svg" xmlns:xlink="http://www.w3.org/1999/xlink" x="0px" y="0px"
	 width="100%" viewBox="0 0 602 99" enable-background="new 0 0 602 99" xml:space="preserve">
<path fill="#FEFEFE" opacity="1.000000" stroke="none" 
	d="
M449.000000,100.000000 
	C299.333344,100.000000 150.166672,100.000000 1.000000,100.000000 
	C1.000000,67.000000 1.000000,34.000000 1.000000,1.000000 
	C201.666672,1.000000 402.333344,1.000000 603.000000,1.000000 
	C603.000000,34.000000 603.000000,67.000000 603.000000,100.000000 
	C551.833313,100.000000 500.666656,100.000000 449.000000,100.000000 
M533.940491,35.673187 
	C533.028076,51.329021 532.115662,66.984856 531.200317,82.690109 
	C538.523376,82.690109 544.386658,82.690109 550.739990,82.690109 
	C550.739990,77.895546 550.739990,73.474678 550.739990,68.957947 
	C559.433716,68.957947 567.621582,68.957947 576.239258,68.957947 
	C576.239258,73.757690 576.239258,78.186867 576.239258,82.813141 
	C582.572998,82.813141 588.468445,82.813141 594.869324,82.813141 
	C594.869324,70.952385 594.921631,59.349888 594.831665,47.748489 
	C594.809875,44.939522 594.505432,42.100544 594.006653,39.333832 
	C592.755127,32.390953 589.453125,26.615574 583.900391,22.129547 
	C571.825623,12.374488 541.824646,12.165678 533.940491,35.673187 
M109.590645,68.569069 
	C116.539650,68.569069 123.488655,68.569069 130.991196,68.569069 
	C130.991196,73.638268 130.991196,78.209839 130.991196,82.716263 
	C137.441879,82.716263 143.324142,82.716263 149.568909,82.716263 
	C149.568909,81.059258 149.578491,79.746811 149.567413,78.434547 
	C149.469131,66.781540 149.883087,55.095493 149.138916,43.483734 
	C148.154449,28.123072 139.164124,18.457058 124.093758,16.350080 
	C103.335487,13.447879 86.529808,24.686264 86.936005,47.571678 
	C87.038918,53.369865 86.627823,59.175457 86.557999,64.978905 
	C86.485947,70.967232 86.541985,76.957100 86.541985,82.669113 
	C93.487022,82.669113 99.223457,82.669113 105.077888,82.669113 
	C105.077888,78.768074 105.236259,75.263695 105.028275,71.781197 
	C104.858826,68.943886 106.220955,68.302902 109.590645,68.569069 
M232.905151,69.480095 
	C241.312698,81.159904 253.112396,84.595741 266.906616,84.146484 
	C291.844238,83.334305 307.989319,57.371632 296.790344,35.178730 
	C289.744385,21.215805 277.476898,15.718855 262.292572,16.007778 
	C248.884155,16.262911 238.008667,21.524651 231.356293,33.424526 
	C224.734604,45.269520 225.395020,57.278866 232.905151,69.480095 
M383.565430,61.719288 
	C385.544586,65.156403 387.088043,68.954521 389.582184,71.964996 
	C398.089508,82.233658 409.579132,85.071526 422.336914,84.054146 
	C435.194733,83.028809 445.254333,77.325508 451.117157,65.574493 
	C457.019379,53.744480 456.360840,41.947140 448.916779,31.007618 
	C441.080872,19.492285 429.440552,15.708725 416.000458,15.970369 
	C392.200470,16.433693 376.291046,38.236298 383.565430,61.719288 
M353.715271,61.501621 
	C353.715271,68.589325 353.715271,75.677025 353.715271,82.819992 
	C360.185730,82.819992 365.943634,82.819992 371.895477,82.819992 
	C371.895477,67.785431 372.727570,52.942299 371.668671,38.235321 
	C370.539429,22.550808 359.069275,13.902999 343.749664,16.344494 
	C338.324097,17.209169 333.268921,20.397793 328.179413,22.470572 
	C328.105377,21.423590 327.969238,19.497797 327.824829,17.454826 
	C321.862915,17.454826 316.121307,17.454826 310.379089,17.454826 
	C310.379089,39.373768 310.379089,60.993664 310.379089,82.821655 
	C316.374756,82.821655 322.280609,82.821655 328.724792,82.821655 
	C328.724792,80.788490 328.713440,79.000992 328.726654,77.213684 
	C328.811615,65.717133 328.640808,54.210464 329.087738,42.727894 
	C329.358917,35.761497 334.606415,31.497484 341.823608,31.319649 
	C348.114288,31.164642 352.562531,35.020096 353.207336,42.040482 
	C353.769196,48.158539 353.575165,54.346016 353.715271,61.501621 
M528.453796,18.883486 
	C527.829285,18.307829 527.224243,17.260828 526.576965,17.234026 
	C522.755310,17.075781 518.910828,17.348328 515.099670,17.093058 
	C512.002014,16.885574 510.230804,17.825712 509.123108,20.867342 
	C507.252777,26.003229 505.004822,31.003710 502.855194,36.035313 
	C499.559509,43.749626 496.212524,51.442055 492.539001,59.950531 
	C486.751495,46.180023 481.395782,33.325436 475.900543,20.530769 
	C475.340332,19.226429 473.990753,17.377224 472.925507,17.320477 
	C467.034882,17.006678 461.118835,17.170267 454.751587,17.170267 
	C455.342773,18.918066 455.632172,20.008173 456.070496,21.034691 
	C463.106812,37.513008 470.926270,53.710857 476.929993,70.556175 
	C480.602905,80.861710 485.861206,85.055672 496.639099,83.267700 
	C499.837738,82.737068 501.614197,82.093460 502.883972,79.072044 
	C511.227081,59.220066 519.725708,39.433460 528.453796,18.883486 
M181.388885,61.983624 
	C176.012634,53.526989 176.621735,41.956009 183.152023,36.306179 
	C191.830551,28.797745 202.615341,29.859434 211.884521,38.715527 
	C215.634506,35.332634 219.397812,31.937717 223.113281,28.585958 
	C213.649841,15.233534 192.165985,13.421091 179.626251,18.821779 
	C165.134476,25.063183 157.549866,37.968964 159.026871,54.453354 
	C160.294937,68.606102 171.094940,80.630539 186.404984,83.496796 
	C200.687042,86.170578 216.320053,82.614220 222.869446,71.472961 
	C219.105560,68.115883 215.327805,64.746429 211.603256,61.424427 
	C200.480606,71.187134 190.460663,71.460915 181.388885,61.983624 
M60.631878,69.426559 
	C60.911743,67.058929 61.191608,64.691299 61.471474,62.323666 
	C61.503048,61.027439 63.287422,59.037113 62.904957,58.443966 
	C61.751080,56.654457 59.754971,55.408016 58.407673,54.230015 
	C59.132088,54.094040 60.600010,53.818497 63.841663,53.210014 
	C60.466850,49.713280 58.008526,47.080738 55.457047,44.541809 
	C51.263962,40.369354 45.410206,39.673313 40.462173,42.578033 
	C37.328136,44.417854 36.314888,47.149391 36.785568,50.592285 
	C37.229706,53.841015 39.526249,53.965916 42.207825,54.289429 
	C46.605846,54.820015 48.415154,57.932648 45.997265,61.241917 
	C41.184578,67.828873 43.653427,75.308601 42.002403,82.377098 
	C47.437389,82.791000 49.146519,80.571152 48.379513,75.840500 
	C47.860088,72.636826 47.750107,69.366768 47.457001,66.126396 
	C47.841595,66.021362 48.226189,65.916336 48.610783,65.811302 
	C49.979652,69.866531 51.348526,73.921761 52.789619,78.190948 
	C56.058434,76.927658 57.907566,75.393021 56.643459,72.088631 
	C55.703930,69.632683 54.601131,67.239189 53.571053,64.817879 
	C53.882381,64.649109 54.193710,64.480347 54.505039,64.311577 
	C56.280960,65.961227 58.056881,67.610878 60.631878,69.426559 
M38.941292,73.591530 
	C39.918427,70.871414 40.895557,68.151299 41.908123,65.332558 
	C36.801704,65.181396 31.923828,71.493576 29.752096,80.573814 
	C35.094109,83.165970 35.609543,82.969055 37.505890,77.612183 
	C37.893509,76.517227 38.281639,75.422455 38.941292,73.591530 
M24.880592,49.169125 
	C21.422668,48.797215 17.969198,48.374577 14.505323,48.070446 
	C12.014204,47.851727 9.824406,47.977482 9.923596,51.527901 
	C10.021913,55.047009 12.338653,55.059673 14.736092,54.908676 
	C18.373119,54.679604 21.998713,54.268982 26.225590,53.880699 
	C25.970367,52.318787 25.745615,50.943340 24.880592,49.169125 
M24.488508,62.954556 
	C25.840895,61.496872 28.593370,59.592190 28.296129,58.661175 
	C27.184561,55.179527 24.356134,56.995628 22.081123,57.678562 
	C19.715200,58.388786 17.404369,59.304466 15.011877,59.898392 
	C12.355263,60.557888 11.395040,61.823505 12.472415,64.531593 
	C13.422680,66.920166 14.761368,67.521309 17.080536,66.311897 
	C19.258593,65.176079 21.545609,64.249199 24.488508,62.954556 
M26.557337,75.074066 
	C29.471478,71.637756 32.385616,68.201447 36.150616,63.761810 
	C26.439407,62.324059 24.106497,70.356682 18.649965,73.228348 
	C22.382132,78.527962 22.744410,78.625885 26.557337,75.074066 
M27.624393,42.278713 
	C24.908661,40.386940 22.317125,38.275871 19.449717,36.651917 
	C14.445971,33.818039 13.796496,34.231915 12.177503,40.894363 
	C16.111181,42.283714 20.081766,43.859352 24.176662,44.981285 
	C24.963846,45.196960 26.239077,43.631332 27.624393,42.278713 
M48.611618,17.233444 
	C43.522060,14.778782 41.719593,15.752321 41.975071,20.939831 
	C42.097042,23.416386 42.225903,25.952137 42.877499,28.316130 
	C43.171310,29.382078 44.644867,30.489223 45.792149,30.795940 
	C46.349327,30.944897 47.969494,29.378466 48.103668,28.444290 
	C48.596085,25.015980 48.667137,21.527149 48.611618,17.233444 
M38.077061,24.348721 
	C37.770588,23.401817 37.362240,22.474363 37.177036,21.504307 
	C36.652367,18.756243 35.460796,17.198523 32.390327,18.425520 
	C29.243673,19.682966 29.850706,21.740637 31.033878,24.071169 
	C32.592464,27.141153 34.027458,30.273884 35.675110,33.712559 
	C37.401829,32.919994 38.829929,32.264496 40.396152,31.545597 
	C39.637432,29.182331 38.983341,27.144974 38.077061,24.348721 
M24.629162,25.611532 
	C22.882784,26.270357 20.992397,26.722971 19.509241,27.758722 
	C19.205744,27.970667 20.061922,30.738918 21.018997,31.688051 
	C23.625891,34.273308 26.572853,36.515652 29.152872,38.697514 
	C30.705797,37.406460 31.800518,36.496342 33.057716,35.451145 
	C30.256037,32.147057 27.706158,29.139923 24.629162,25.611532 
M53.033432,26.466101 
	C53.183037,28.319269 52.681286,31.270838 53.604996,31.818604 
	C56.320454,33.428875 57.632790,30.949720 58.678619,28.765923 
	C59.610504,26.820045 60.979122,24.949526 61.322117,22.905954 
	C61.525558,21.693838 60.431164,19.664490 59.328724,19.029186 
	C58.501266,18.552345 56.205956,19.309244 55.499695,20.232529 
	C54.338264,21.750851 53.934525,23.848761 53.033432,26.466101 
M70.318901,26.152828 
	C68.918724,26.145103 67.078949,25.568958 66.206528,26.243652 
	C64.159279,27.826893 62.369431,29.869215 60.909744,32.020443 
	C60.367752,32.819210 60.593079,34.908264 61.277351,35.561146 
	C62.017258,36.267105 64.075859,36.556561 64.902573,36.018562 
	C67.078758,34.602371 69.142738,32.831429 70.745338,30.802120 
	C71.427139,29.938780 70.846214,28.078238 70.318901,26.152828 
M69.127586,44.405510 
	C71.638885,43.906487 74.240196,43.667931 76.637589,42.839340 
	C79.341110,41.904942 79.839203,37.152294 77.473061,36.886440 
	C74.470596,36.549088 71.140076,38.315693 68.145813,39.621658 
	C67.708824,39.812252 68.350975,42.477036 69.127586,44.405510 
M73.895584,54.761013 
	C74.723167,54.805515 75.551308,54.841671 76.378235,54.896095 
	C78.815071,55.056492 81.049187,55.240108 81.102974,51.620872 
	C81.154694,48.140244 79.092308,47.883717 76.570274,48.053829 
	C74.671303,48.181923 72.783203,48.471195 69.721603,48.823013 
	C71.142944,51.323586 72.092506,52.994171 73.895584,54.761013 
M71.849205,60.340302 
	C71.620163,61.796162 70.846680,63.463760 71.308411,64.650978 
	C71.815140,65.953941 73.320335,67.309334 74.660118,67.688148 
	C75.512444,67.929123 77.211754,66.664040 77.868614,65.646523 
	C78.417488,64.796280 78.479263,62.644115 77.926079,62.257725 
	C76.356804,61.161591 74.361954,60.674732 71.849205,60.340302 
M72.074707,74.558578 
	C71.401688,73.470863 70.728661,72.383156 69.648270,70.637054 
	C68.121750,73.403877 67.091187,75.271782 66.060616,77.139694 
	C66.500229,77.590164 66.939850,78.040642 67.379463,78.491112 
	C68.849251,77.404343 70.319038,76.317574 72.074707,74.558578 
z"/>
<path fill="#D13C3C" opacity="1.000000" stroke="none" 
	d="
M534.019897,35.283714 
	C541.824646,12.165678 571.825623,12.374488 583.900391,22.129547 
	C589.453125,26.615574 592.755127,32.390953 594.006653,39.333832 
	C594.505432,42.100544 594.809875,44.939522 594.831665,47.748489 
	C594.921631,59.349888 594.869324,70.952385 594.869324,82.813141 
	C588.468445,82.813141 582.572998,82.813141 576.239258,82.813141 
	C576.239258,78.186867 576.239258,73.757690 576.239258,68.957947 
	C567.621582,68.957947 559.433716,68.957947 550.739990,68.957947 
	C550.739990,73.474678 550.739990,77.895546 550.739990,82.690109 
	C544.386658,82.690109 538.523376,82.690109 531.200317,82.690109 
	C532.115662,66.984856 533.028076,51.329021 534.019897,35.283714 
M550.738159,43.813217 
	C550.738159,47.075562 550.738159,50.337910 550.738159,53.788162 
	C559.330078,53.788162 567.531616,53.788162 576.036865,53.788162 
	C576.036865,50.241863 576.236877,46.948769 575.996826,43.688072 
	C575.428406,35.968086 570.947876,31.543814 563.762939,31.315243 
	C556.666870,31.089502 552.024719,35.246399 550.738159,43.813217 
z"/>
<path fill="#D13A3A" opacity="1.000000" stroke="none" 
	d="
M109.101440,68.569473 
	C106.220955,68.302902 104.858826,68.943886 105.028275,71.781197 
	C105.236259,75.263695 105.077888,78.768074 105.077888,82.669113 
	C99.223457,82.669113 93.487022,82.669113 86.541985,82.669113 
	C86.541985,76.957100 86.485947,70.967232 86.557999,64.978905 
	C86.627823,59.175457 87.038918,53.369865 86.936005,47.571678 
	C86.529808,24.686264 103.335487,13.447879 124.093758,16.350080 
	C139.164124,18.457058 148.154449,28.123072 149.138916,43.483734 
	C149.883087,55.095493 149.469131,66.781540 149.567413,78.434547 
	C149.578491,79.746811 149.568909,81.059258 149.568909,82.716263 
	C143.324142,82.716263 137.441879,82.716263 130.991196,82.716263 
	C130.991196,78.209839 130.991196,73.638268 130.991196,68.569069 
	C123.488655,68.569069 116.539650,68.569069 109.101440,68.569473 
M105.207932,44.024353 
	C105.207932,47.274094 105.207932,50.523834 105.207932,53.660515 
	C114.067940,53.660515 122.412964,53.660515 130.716736,53.660515 
	C131.616806,38.561378 128.855850,32.891533 120.114128,31.423473 
	C112.598251,30.161282 107.400955,34.273727 105.207932,44.024353 
z"/>
<path fill="#D13A3A" opacity="1.000000" stroke="none" 
	d="
M232.691437,69.184738 
	C225.395020,57.278866 224.734604,45.269520 231.356293,33.424526 
	C238.008667,21.524651 248.884155,16.262911 262.292572,16.007778 
	C277.476898,15.718855 289.744385,21.215805 296.790344,35.178730 
	C307.989319,57.371632 291.844238,83.334305 266.906616,84.146484 
	C253.112396,84.595741 241.312698,81.159904 232.691437,69.184738 
M251.405716,64.115768 
	C259.376862,70.581322 269.026550,70.564896 275.788330,64.074265 
	C282.264252,57.858021 283.116760,45.846146 277.609711,38.411358 
	C272.398712,31.376286 262.750427,29.366604 254.854202,33.671555 
	C244.841797,39.130230 242.962479,53.168751 251.405716,64.115768 
z"/>
<path fill="#D13B3B" opacity="1.000000" stroke="none" 
	d="
M383.423431,61.341766 
	C376.291046,38.236298 392.200470,16.433693 416.000458,15.970369 
	C429.440552,15.708725 441.080872,19.492285 448.916779,31.007618 
	C456.360840,41.947140 457.019379,53.744480 451.117157,65.574493 
	C445.254333,77.325508 435.194733,83.028809 422.336914,84.054146 
	C409.579132,85.071526 398.089508,82.233658 389.582184,71.964996 
	C387.088043,68.954521 385.544586,65.156403 383.423431,61.341766 
M434.184204,41.624699 
	C430.934143,33.356213 420.267273,28.364290 409.735687,33.484451 
	C401.853729,37.316448 398.265869,48.881165 401.947510,57.853321 
	C405.633392,66.835960 414.776245,71.028625 424.038849,67.983856 
	C433.876007,64.750214 438.177338,54.158333 434.184204,41.624699 
z"/>
<path fill="#D13A3A" opacity="1.000000" stroke="none" 
	d="
M353.715210,61.002220 
	C353.575165,54.346016 353.769196,48.158539 353.207336,42.040482 
	C352.562531,35.020096 348.114288,31.164642 341.823608,31.319649 
	C334.606415,31.497484 329.358917,35.761497 329.087738,42.727894 
	C328.640808,54.210464 328.811615,65.717133 328.726654,77.213684 
	C328.713440,79.000992 328.724792,80.788490 328.724792,82.821655 
	C322.280609,82.821655 316.374756,82.821655 310.379089,82.821655 
	C310.379089,60.993664 310.379089,39.373768 310.379089,17.454826 
	C316.121307,17.454826 321.862915,17.454826 327.824829,17.454826 
	C327.969238,19.497797 328.105377,21.423590 328.179413,22.470572 
	C333.268921,20.397793 338.324097,17.209169 343.749664,16.344494 
	C359.069275,13.902999 370.539429,22.550808 371.668671,38.235321 
	C372.727570,52.942299 371.895477,67.785431 371.895477,82.819992 
	C365.943634,82.819992 360.185730,82.819992 353.715271,82.819992 
	C353.715271,75.677025 353.715271,68.589325 353.715210,61.002220 
z"/>
<path fill="#D13A3A" opacity="1.000000" stroke="none" 
	d="
M528.313721,19.254503 
	C519.725708,39.433460 511.227081,59.220066 502.883972,79.072044 
	C501.614197,82.093460 499.837738,82.737068 496.639099,83.267700 
	C485.861206,85.055672 480.602905,80.861710 476.929993,70.556175 
	C470.926270,53.710857 463.106812,37.513008 456.070496,21.034691 
	C455.632172,20.008173 455.342773,18.918066 454.751587,17.170267 
	C461.118835,17.170267 467.034882,17.006678 472.925507,17.320477 
	C473.990753,17.377224 475.340332,19.226429 475.900543,20.530769 
	C481.395782,33.325436 486.751495,46.180023 492.539001,59.950531 
	C496.212524,51.442055 499.559509,43.749626 502.855194,36.035313 
	C505.004822,31.003710 507.252777,26.003229 509.123108,20.867342 
	C510.230804,17.825712 512.002014,16.885574 515.099670,17.093058 
	C518.910828,17.348328 522.755310,17.075781 526.576965,17.234026 
	C527.224243,17.260828 527.829285,18.307829 528.313721,19.254503 
z"/>
<path fill="#D13B3B" opacity="1.000000" stroke="none" 
	d="
M181.624878,62.274410 
	C190.460663,71.460915 200.480606,71.187134 211.603256,61.424427 
	C215.327805,64.746429 219.105560,68.115883 222.869446,71.472961 
	C216.320053,82.614220 200.687042,86.170578 186.404984,83.496796 
	C171.094940,80.630539 160.294937,68.606102 159.026871,54.453354 
	C157.549866,37.968964 165.134476,25.063183 179.626251,18.821779 
	C192.165985,13.421091 213.649841,15.233534 223.113281,28.585958 
	C219.397812,31.937717 215.634506,35.332634 211.884521,38.715527 
	C202.615341,29.859434 191.830551,28.797745 183.152023,36.306179 
	C176.621735,41.956009 176.012634,53.526989 181.624878,62.274410 
z"/>
<path fill="#171D50" opacity="1.000000" stroke="none" 
	d="
M60.232342,69.343536 
	C58.056881,67.610878 56.280960,65.961227 54.505039,64.311577 
	C54.193710,64.480347 53.882381,64.649109 53.571053,64.817879 
	C54.601131,67.239189 55.703930,69.632683 56.643459,72.088631 
	C57.907566,75.393021 56.058434,76.927658 52.789619,78.190948 
	C51.348526,73.921761 49.979652,69.866531 48.610783,65.811302 
	C48.226189,65.916336 47.841595,66.021362 47.457001,66.126396 
	C47.750107,69.366768 47.860088,72.636826 48.379513,75.840500 
	C49.146519,80.571152 47.437389,82.791000 42.002403,82.377098 
	C43.653427,75.308601 41.184578,67.828873 45.997265,61.241917 
	C48.415154,57.932648 46.605846,54.820015 42.207825,54.289429 
	C39.526249,53.965916 37.229706,53.841015 36.785568,50.592285 
	C36.314888,47.149391 37.328136,44.417854 40.462173,42.578033 
	C45.410206,39.673313 51.263962,40.369354 55.457047,44.541809 
	C58.008526,47.080738 60.466850,49.713280 63.841663,53.210014 
	C60.600010,53.818497 59.132088,54.094040 58.407673,54.230015 
	C59.754971,55.408016 61.751080,56.654457 62.904957,58.443966 
	C63.287422,59.037113 61.503048,61.027439 61.471474,62.323666 
	C61.191608,64.691299 60.911743,67.058929 60.232342,69.343536 
M53.602306,63.131348 
	C53.174591,63.285332 52.746876,63.439312 52.319160,63.593292 
	C52.917633,63.646393 53.516106,63.699497 53.602306,63.131348 
z"/>
<path fill="#1D2254" opacity="1.000000" stroke="none" 
	d="
M38.805412,73.959564 
	C38.281639,75.422455 37.893509,76.517227 37.505890,77.612183 
	C35.609543,82.969055 35.094109,83.165970 29.752096,80.573814 
	C31.923828,71.493576 36.801704,65.181396 41.908123,65.332558 
	C40.895557,68.151299 39.918427,70.871414 38.805412,73.959564 
z"/>
<path fill="#1C2254" opacity="1.000000" stroke="none" 
	d="
M25.200726,49.368507 
	C25.745615,50.943340 25.970367,52.318787 26.225590,53.880699 
	C21.998713,54.268982 18.373119,54.679604 14.736092,54.908676 
	C12.338653,55.059673 10.021913,55.047009 9.923596,51.527901 
	C9.824406,47.977482 12.014204,47.851727 14.505323,48.070446 
	C17.969198,48.374577 21.422668,48.797215 25.200726,49.368507 
z"/>
<path fill="#1A2052" opacity="1.000000" stroke="none" 
	d="
M24.136595,63.092468 
	C21.545609,64.249199 19.258593,65.176079 17.080536,66.311897 
	C14.761368,67.521309 13.422680,66.920166 12.472415,64.531593 
	C11.395040,61.823505 12.355263,60.557888 15.011877,59.898392 
	C17.404369,59.304466 19.715200,58.388786 22.081123,57.678562 
	C24.356134,56.995628 27.184561,55.179527 28.296129,58.661175 
	C28.593370,59.592190 25.840895,61.496872 24.136595,63.092468 
z"/>
<path fill="#161C50" opacity="1.000000" stroke="none" 
	d="
M26.332619,75.349800 
	C22.744410,78.625885 22.382132,78.527962 18.649965,73.228348 
	C24.106497,70.356682 26.439407,62.324059 36.150616,63.761810 
	C32.385616,68.201447 29.471478,71.637756 26.332619,75.349800 
z"/>
<path fill="#1E2455" opacity="1.000000" stroke="none" 
	d="
M27.456776,42.583092 
	C26.239077,43.631332 24.963846,45.196960 24.176662,44.981285 
	C20.081766,43.859352 16.111181,42.283714 12.177503,40.894363 
	C13.796496,34.231915 14.445971,33.818039 19.449717,36.651917 
	C22.317125,38.275871 24.908661,40.386940 27.456776,42.583092 
z"/>
<path fill="#1C2254" opacity="1.000000" stroke="none" 
	d="
M48.754204,17.647270 
	C48.667137,21.527149 48.596085,25.015980 48.103668,28.444290 
	C47.969494,29.378466 46.349327,30.944897 45.792149,30.795940 
	C44.644867,30.489223 43.171310,29.382078 42.877499,28.316130 
	C42.225903,25.952137 42.097042,23.416386 41.975071,20.939831 
	C41.719593,15.752321 43.522060,14.778782 48.754204,17.647270 
z"/>
<path fill="#191F52" opacity="1.000000" stroke="none" 
	d="
M38.203156,24.728168 
	C38.983341,27.144974 39.637432,29.182331 40.396152,31.545597 
	C38.829929,32.264496 37.401829,32.919994 35.675110,33.712559 
	C34.027458,30.273884 32.592464,27.141153 31.033878,24.071169 
	C29.850706,21.740637 29.243673,19.682966 32.390327,18.425520 
	C35.460796,17.198523 36.652367,18.756243 37.177036,21.504307 
	C37.362240,22.474363 37.770588,23.401817 38.203156,24.728168 
z"/>
<path fill="#1F2557" opacity="1.000000" stroke="none" 
	d="
M24.892719,25.872158 
	C27.706158,29.139923 30.256037,32.147057 33.057716,35.451145 
	C31.800518,36.496342 30.705797,37.406460 29.152872,38.697514 
	C26.572853,36.515652 23.625891,34.273308 21.018997,31.688051 
	C20.061922,30.738918 19.205744,27.970667 19.509241,27.758722 
	C20.992397,26.722971 22.882784,26.270357 24.892719,25.872158 
z"/>
<path fill="#1B2053" opacity="1.000000" stroke="none" 
	d="
M53.122383,26.084208 
	C53.934525,23.848761 54.338264,21.750851 55.499695,20.232529 
	C56.205956,19.309244 58.501266,18.552345 59.328724,19.029186 
	C60.431164,19.664490 61.525558,21.693838 61.322117,22.905954 
	C60.979122,24.949526 59.610504,26.820045 58.678619,28.765923 
	C57.632790,30.949720 56.320454,33.428875 53.604996,31.818604 
	C52.681286,31.270838 53.183037,28.319269 53.122383,26.084208 
z"/>
<path fill="#191F52" opacity="1.000000" stroke="none" 
	d="
M70.579018,26.411852 
	C70.846214,28.078238 71.427139,29.938780 70.745338,30.802120 
	C69.142738,32.831429 67.078758,34.602371 64.902573,36.018562 
	C64.075859,36.556561 62.017258,36.267105 61.277351,35.561146 
	C60.593079,34.908264 60.367752,32.819210 60.909744,32.020443 
	C62.369431,29.869215 64.159279,27.826893 66.206528,26.243652 
	C67.078949,25.568958 68.918724,26.145103 70.579018,26.411852 
z"/>
<path fill="#1B2153" opacity="1.000000" stroke="none" 
	d="
M68.810684,44.201241 
	C68.350975,42.477036 67.708824,39.812252 68.145813,39.621658 
	C71.140076,38.315693 74.470596,36.549088 77.473061,36.886440 
	C79.839203,37.152294 79.341110,41.904942 76.637589,42.839340 
	C74.240196,43.667931 71.638885,43.906487 68.810684,44.201241 
z"/>
<path fill="#212758" opacity="1.000000" stroke="none" 
	d="
M73.468826,54.712883 
	C72.092506,52.994171 71.142944,51.323586 69.721603,48.823013 
	C72.783203,48.471195 74.671303,48.181923 76.570274,48.053829 
	C79.092308,47.883717 81.154694,48.140244 81.102974,51.620872 
	C81.049187,55.240108 78.815071,55.056492 76.378235,54.896095 
	C75.551308,54.841671 74.723167,54.805515 73.468826,54.712883 
z"/>
<path fill="#272D5D" opacity="1.000000" stroke="none" 
	d="
M72.191940,60.144127 
	C74.361954,60.674732 76.356804,61.161591 77.926079,62.257725 
	C78.479263,62.644115 78.417488,64.796280 77.868614,65.646523 
	C77.211754,66.664040 75.512444,67.929123 74.660118,67.688148 
	C73.320335,67.309334 71.815140,65.953941 71.308411,64.650978 
	C70.846680,63.463760 71.620163,61.796162 72.191940,60.144127 
z"/>
<path fill="#2A305F" opacity="1.000000" stroke="none" 
	d="
M71.931763,74.894691 
	C70.319038,76.317574 68.849251,77.404343 67.379463,78.491112 
	C66.939850,78.040642 66.500229,77.590164 66.060616,77.139694 
	C67.091187,75.271782 68.121750,73.403877 69.648270,70.637054 
	C70.728661,72.383156 71.401688,73.470863 71.931763,74.894691 
z"/>
<path fill="#FFFEFE" opacity="1.000000" stroke="none" 
	d="
M550.777344,43.360786 
	C552.024719,35.246399 556.666870,31.089502 563.762939,31.315243 
	C570.947876,31.543814 575.428406,35.968086 575.996826,43.688072 
	C576.236877,46.948769 576.036865,50.241863 576.036865,53.788162 
	C567.531616,53.788162 559.330078,53.788162 550.738159,53.788162 
	C550.738159,50.337910 550.738159,47.075562 550.777344,43.360786 
z"/>
<path fill="#FEFAFA" opacity="1.000000" stroke="none" 
	d="
M105.247948,43.589638 
	C107.400955,34.273727 112.598251,30.161282 120.114128,31.423473 
	C128.855850,32.891533 131.616806,38.561378 130.716736,53.660515 
	C122.412964,53.660515 114.067940,53.660515 105.207932,53.660515 
	C105.207932,50.523834 105.207932,47.274094 105.247948,43.589638 
z"/>
<path fill="#FFFDFD" opacity="1.000000" stroke="none" 
	d="
M251.124573,63.873810 
	C242.962479,53.168751 244.841797,39.130230 254.854202,33.671555 
	C262.750427,29.366604 272.398712,31.376286 277.609711,38.411358 
	C283.116760,45.846146 282.264252,57.858021 275.788330,64.074265 
	C269.026550,70.564896 259.376862,70.581322 251.124573,63.873810 
z"/>
<path fill="#FEFDFD" opacity="1.000000" stroke="none" 
	d="
M434.312042,41.998154 
	C438.177338,54.158333 433.876007,64.750214 424.038849,67.983856 
	C414.776245,71.028625 405.633392,66.835960 401.947510,57.853321 
	C398.265869,48.881165 401.853729,37.316448 409.735687,33.484451 
	C420.267273,28.364290 430.934143,33.356213 434.312042,41.998154 
z"/>
<path fill="#FEFEFE" opacity="1.000000" stroke="none" 
	d="
M53.858444,63.441971 
	C53.516106,63.699497 52.917633,63.646393 52.319160,63.593292 
	C52.746876,63.439312 53.174591,63.285332 53.858444,63.441971 
z"/>
</svg>